<svg width="20" height="19" viewBox="0 0 20 19" fill="none" xmlns="http://www.w3.org/2000/svg">
<path d="M19.1105 8.91464C19.0292 6.45421 17.9911 4.17184 16.1867 2.48839C14.3822 0.807256 12.0274 -0.0737806 9.55641 0.00484206C6.43752 0.106589 3.59962 1.75073 1.96702 4.40077L2.75894 4.88407C4.22897 2.49996 6.78122 1.02 9.5866 0.929815C11.8091 0.855817 13.9294 1.65129 15.5527 3.16362C17.176 4.67827 18.1119 6.72939 18.1839 8.9447C18.2559 11.1577 17.4593 13.269 15.9405 14.8853C14.4194 16.5017 12.3572 17.4336 10.1347 17.5053C6.76032 17.6163 3.62284 15.6461 2.25267 12.5868L3.47421 12.2654L1.27496 10.9935L0 13.1811L1.33999 12.8273C2.78913 16.2127 6.17741 18.4349 9.86296 18.4349C9.96282 18.4349 10.0627 18.4326 10.1625 18.4303C12.6335 18.3494 14.9257 17.3157 16.6163 15.5189C18.307 13.7199 19.1918 11.3751 19.1105 8.91464Z" fill="#821C82"/>
<path d="M9.48779 3.93604V10.4039L11.8798 12.7857L12.537 12.1313L10.4167 10.0224V3.93604H9.48779Z" fill="#821C82"/>
</svg>