<svg width="176" height="177" viewBox="0 0 176 177" fill="none" xmlns="http://www.w3.org/2000/svg">
<path d="M176 82.836C176 86.2752 176 89.7098 176 93.149C175.862 94.3841 175.72 95.6193 175.582 96.8545C173.314 117.044 165.508 134.786 151.105 149.158C127.569 172.64 99.1987 180.864 66.8795 173.251C42.1178 167.42 23.4214 152.758 11.052 130.484C0.762592 111.938 -2.35959 92.0653 1.76353 71.2191C2.75528 66.1958 4.55972 61.3332 5.95093 56.3879C6.19887 55.5017 6.07031 54.4732 6.4514 53.6742C7.01615 52.485 8.00331 51.5023 8.59102 50.3269C22.0302 23.4242 43.4952 7.08693 73.0183 1.39783C76.5996 0.709073 80.2636 0.45653 83.8908 0.00195312C86.9855 0.00195312 90.0755 0.00195312 93.1702 0.00195312C93.6063 0.10297 94.0425 0.263679 94.4833 0.295821C106.816 1.14069 118.506 4.38243 129.309 10.3516C154.085 24.0395 169.264 44.826 174.609 72.6792C175.252 76.0266 175.545 79.4474 176 82.836ZM149.209 33.1264C146.959 34.6233 145.008 36.0329 142.946 37.2452C142.115 37.7365 140.958 38.1819 140.081 38.0028C132.973 36.5518 125.751 35.5967 118.901 33.0254C117.872 32.6397 116.536 32.6213 115.452 32.8876C105.379 35.3855 105.388 35.4131 96.6046 32.3642C96.5495 32.3458 96.4944 32.3366 96.4393 32.3183C94.0425 31.4596 93.3171 29.903 94.4098 27.6347C96.173 23.9752 98.0325 20.3661 99.8323 16.7249C100.512 15.3474 101.554 14.6908 103.115 14.7091C106.205 14.7505 109.3 14.7229 112.395 14.7183C114.86 14.7137 116.564 13.0286 118.611 12.0551C100.287 4.71762 81.8247 4.01509 63.064 10.2185C64.772 11.1689 66.526 11.9679 68.3579 12.3215C72.9035 13.2031 77.4995 13.8459 82.0588 14.6586C84.6576 15.1224 85.5208 16.6101 84.7265 19.1263C83.9322 21.6334 83.023 24.1037 82.2517 26.6154C81.7879 28.1398 80.8146 29.0168 79.3499 29.4806C77.4995 30.0683 75.617 30.601 73.8264 31.3402C73.0045 31.68 72.1413 32.3137 71.6776 33.0575C69.2716 36.8824 67.0264 40.8129 64.6251 44.6378C64.042 45.5653 63.1834 46.4331 62.2559 47.0117C58.2292 49.5279 54.1704 52.0028 50.0289 54.3216C48.578 55.1344 46.8883 55.69 45.24 55.9655C40.3317 56.7874 35.3867 57.3843 30.4693 58.1511C30.0515 58.2154 29.4592 58.8536 29.4041 59.2899C29.0781 61.751 29.2709 64.0652 31.6585 65.6218C32.361 66.081 32.8477 66.8615 33.5042 67.4126C34.8541 68.5329 35.3592 69.9472 35.2398 71.6691C35.1755 72.6379 35.226 73.6113 35.226 74.5848C35.4189 74.6628 35.6117 74.7363 35.8 74.8144C36.6723 73.8363 37.4988 72.8078 38.4263 71.8895C40.6899 69.6533 42.6825 69.9793 44.1243 72.8078C45.5017 75.5077 46.8745 78.2122 48.1647 80.9535C48.5963 81.8718 49.1473 82.1611 50.1391 82.1565C55.4651 82.1106 60.7958 82.2253 66.1173 82.0922C68.3671 82.0325 69.7262 82.8728 70.8006 84.7875C72.8162 88.3782 75.0339 91.8541 77.1001 95.4173C77.6786 96.4137 78.3076 96.8912 79.529 96.8361C81.9854 96.7305 84.4556 96.7994 86.9166 96.804C90.2224 96.8131 91.3244 98.1034 90.7045 101.299C89.8964 105.455 89.1389 109.624 88.1563 113.738C87.8441 115.042 87.0543 116.346 86.1636 117.379C84.5612 119.239 82.8761 121.099 80.9431 122.595C77.1965 125.502 75.4426 129.042 76.2782 133.808C76.5812 135.539 75.7318 136.853 74.2993 137.89C71.4204 139.97 68.638 142.174 65.75 144.241C64.8501 144.888 64.5379 145.577 64.5562 146.661C64.6205 150.384 64.6297 154.108 64.5608 157.828C64.5103 160.583 62.7977 161.776 60.1989 160.95C57.8022 160.192 55.4422 159.301 53.0317 158.594C51.3466 158.103 50.3089 157.134 49.6799 155.49C48.0867 151.326 46.3373 147.221 44.7579 143.051C44.3217 141.904 44.0738 140.618 44.06 139.392C44.0003 131.49 44.0278 123.583 44.0278 115.68C44.0278 115.07 44.0278 114.459 44.0278 113.867C41.0067 113.251 38.2288 112.42 35.4005 112.168C31.5896 111.828 29.574 109.904 27.8843 106.52C25.1157 100.969 22.4664 95.555 23.4673 89.1129C23.4765 89.0578 23.449 88.9935 23.4719 88.943C23.9724 87.7216 24.3122 86.3854 25.033 85.3064C25.6988 84.3146 26.7824 83.5983 27.8017 82.6478C23.0587 79.4795 18.6601 76.4903 14.1972 73.5976C12.8197 72.7022 11.9244 71.6048 11.4653 70.0344C10.9235 68.1794 10.2485 66.3611 9.51849 64.203C-1.94636 102.029 15.042 144.089 52.7746 162.107C89.5659 179.679 131.738 166.988 153.63 137.096C151.854 135.365 150.081 133.574 148.24 131.862C147.111 130.81 146.624 129.607 146.665 128.06C146.739 125.314 146.757 122.559 146.651 119.813C146.61 118.716 146.371 117.535 145.894 116.553C142.96 110.538 140.017 104.523 136.89 98.6085C135.453 95.8856 134.704 93.1582 134.902 90.0817C135.04 87.9787 135.526 85.4809 134.617 83.8508C133.671 82.1519 131.27 81.2198 129.429 80.0764C128.887 79.7412 128.038 79.6081 127.409 79.7458C124.447 80.3887 121.527 81.2152 118.565 81.8534C117.721 82.0371 116.688 82.0509 115.916 81.7249C109.213 78.9285 102.532 76.0909 95.9021 73.1246C95.048 72.7435 94.1022 71.6461 93.9599 70.7599C92.8855 64.0974 91.9993 57.3981 91.0535 50.7126C90.8515 49.2846 91.3841 48.178 92.3942 47.1862C94.9746 44.6607 97.4264 42.0021 100.108 39.5961C100.989 38.8017 102.394 38.2599 103.588 38.2094C107.477 38.0395 111.375 38.1084 115.269 38.1543C123.056 38.2461 121.123 37.0339 125.421 43.6781C127.073 46.2311 128.841 47.9346 132.005 47.8841C132.905 47.8703 133.823 48.1229 134.704 48.357C140.389 49.8815 145.944 49.8769 151.335 47.177C152.193 46.7454 153.176 46.5663 154.094 46.2495C155.311 45.8362 156.518 45.4046 158.029 44.8765C154.999 40.8313 152.124 37.0064 149.209 33.1264ZM156.877 132.334C173.718 107.204 173.778 73.6618 160.706 50.3177C160.596 50.3269 160.481 50.3177 160.38 50.3498C155.499 51.9753 150.637 53.6421 145.738 55.2078C144.737 55.5293 143.584 55.7129 142.56 55.5614C137.698 54.8405 132.868 53.8625 127.996 53.2196C125.375 52.8753 123.579 51.7779 122.298 49.4636C121.256 47.5765 120.232 45.1934 118.533 44.2888C116.825 43.3842 114.291 44.0041 112.119 44.0087C109.378 44.0133 106.315 43.32 103.983 44.3164C101.582 45.3449 99.8966 48.0448 97.8994 50.0101C97.858 50.0514 97.7937 50.0835 97.78 50.1294C97.5779 50.7769 97.1418 51.461 97.2198 52.0763C97.8626 57.0675 98.6478 62.0449 99.286 67.036C99.4145 68.0462 99.8186 68.5054 100.705 68.8819C105.971 71.0997 111.205 73.4001 116.481 75.5995C117.16 75.8842 118.051 75.9439 118.772 75.7832C121.619 75.1496 124.443 74.4195 127.257 73.6664C128.86 73.2394 130.251 73.4414 131.633 74.4241C134.011 76.1138 136.449 77.7209 138.915 79.2867C140.265 80.1453 140.852 81.2978 140.834 82.8636C140.806 85.7242 140.756 88.594 140.862 91.4501C140.903 92.5475 141.142 93.7275 141.624 94.7102C144.911 101.442 148.327 108.109 151.601 114.845C152.175 116.029 152.455 117.448 152.524 118.775C152.666 121.402 152.524 124.042 152.597 126.673C152.616 127.293 152.85 128.032 153.24 128.496C154.342 129.795 155.582 130.989 156.877 132.334ZM84.4188 102.681C81.9441 102.681 79.7218 102.612 77.5041 102.704C75.5206 102.787 74.1753 102.075 73.1744 100.294C71.1541 96.7075 68.9043 93.2454 66.8749 89.6639C66.1724 88.4241 65.424 87.919 63.9502 87.9512C58.7985 88.0568 53.6423 87.8777 48.4907 88.0384C45.993 88.1165 44.5467 87.1936 43.5917 84.939C42.6504 82.7167 41.4474 80.6045 40.2674 78.2627C36.6953 81.8442 33.3206 85.1916 30.0193 88.5986C29.6061 89.0256 29.4362 89.7924 29.3627 90.4261C28.9449 94.1132 29.5923 97.557 31.6585 100.721C32.4666 101.96 32.9119 103.43 33.7292 104.66C34.17 105.322 34.9827 105.978 35.7357 106.153C39.4134 107.002 43.1279 107.659 46.824 108.435C49.2024 108.935 49.8682 109.798 49.8728 112.232C49.8819 117.728 50.1896 123.247 49.8039 128.721C49.2483 136.577 50.7451 143.86 54.0923 150.949C55.1254 153.139 56.5258 153.796 58.7205 154.085C58.7205 150.889 58.7848 147.804 58.6975 144.723C58.647 142.937 59.3082 141.669 60.7591 140.673C62.3156 139.603 63.7986 138.432 65.3 137.284C66.9805 136.003 69.2762 135.016 70.1348 133.312C70.9934 131.609 70.4792 129.18 70.4195 127.068C70.3782 125.507 70.9383 124.345 72.0311 123.275C75.1808 120.194 78.2801 117.053 81.3885 113.926C81.7466 113.564 82.2655 113.201 82.3619 112.76C83.0873 109.486 83.7164 106.194 84.4188 102.681ZM78.2571 19.962C76.0349 19.5855 74.0238 19.1401 71.9898 18.9151C66.5673 18.3228 61.4157 17.0601 57.2145 13.2949C56.3146 12.4914 55.4881 12.5832 54.4459 13.0653C36.7045 21.2569 23.4581 34.0953 14.4864 51.4335C13.1733 53.9727 12.5443 56.3236 13.986 58.9593C14.3625 59.648 14.6104 60.4515 14.7482 61.2275C15.6802 66.5998 18.5637 70.4017 23.5041 72.7894C25.4692 73.7399 27.1956 75.1771 29.2112 76.5179C29.4867 73.6343 29.776 71.118 27.1726 69.364C26.3324 68.7992 25.5243 68.037 25.0101 67.1784C24.3397 66.058 23.6693 64.7861 23.5408 63.5234C23.3066 61.2597 23.4581 58.9501 23.4811 56.6588C23.5041 54.0278 24.3259 53.0773 26.966 52.6824C30.4739 52.159 33.9817 51.6263 37.5034 51.2131C42.4576 50.6299 47.049 49.459 51.5349 46.8556C57.1778 43.5817 61.783 39.7293 64.368 33.7096C66.5443 28.6403 70.0889 25.3205 75.6813 24.4803C75.7364 24.4711 75.8053 24.4619 75.842 24.4252C76.3103 23.9935 76.9394 23.64 77.2011 23.1073C77.651 22.2028 77.8668 21.1788 78.2571 19.962ZM144.723 29.0582C144.636 28.8102 144.631 28.6771 144.562 28.6082C139.154 23.4333 133.143 19.085 126.532 15.5861C126.1 15.3566 125.324 15.4943 124.833 15.7285C122.096 17.0279 119.429 18.4743 116.669 19.7233C115.613 20.2054 114.387 20.4809 113.226 20.536C110.71 20.6554 108.189 20.5452 105.668 20.6003C105.172 20.6095 104.433 20.8161 104.236 21.1742C103.088 23.2543 102.073 25.4032 101.035 27.4878C103.854 28.9663 106.499 29.4485 109.424 28.3419C111.44 27.5796 113.611 27.1664 115.742 26.7807C116.816 26.5878 118.079 26.5006 119.066 26.8725C125.517 29.3383 132.28 30.5183 139.002 31.8545C139.525 31.9601 140.205 31.9831 140.637 31.7351C142.046 30.9132 143.382 29.949 144.723 29.0582Z" fill="white" fill-opacity="0.15"/>
</svg>
