<svg width="75" height="74" viewBox="0 0 75 74" fill="none" xmlns="http://www.w3.org/2000/svg">
<g filter="url(#filter0_d_652:4)">
<ellipse cx="37.5" cy="38" rx="22.5" ry="22" fill="white"/>
</g>
<path d="M23.25 33.75V28.25H31.75V33.75H23.25Z" stroke="#354052" stroke-width="0.5"/>
<path d="M23.25 40.75V35.25H31.75V40.75H23.25Z" stroke="#354052" stroke-width="0.5"/>
<path d="M23.25 47.75V42.25H31.75V47.75H23.25Z" stroke="#354052" stroke-width="0.5"/>
<path d="M33.25 33.75V28.25H41.75V33.75H33.25Z" stroke="#354052" stroke-width="0.5"/>
<path d="M33.25 40.75V35.25H41.75V40.75H33.25Z" stroke="#354052" stroke-width="0.5"/>
<path d="M33.25 47.75V42.25H41.75V47.75H33.25Z" stroke="#354052" stroke-width="0.5"/>
<path d="M43.25 33.75V28.25H51.75V33.75H43.25Z" stroke="#354052" stroke-width="0.5"/>
<path d="M43.25 40.75V35.25H51.75V40.75H43.25Z" stroke="#354052" stroke-width="0.5"/>
<path d="M43.25 47.75V42.25H51.75V47.75H43.25Z" stroke="#354052" stroke-width="0.5"/>
<defs>
<filter id="filter0_d_652:4" x="0" y="0" width="75" height="74" filterUnits="userSpaceOnUse" color-interpolation-filters="sRGB">
<feFlood flood-opacity="0" result="BackgroundImageFix"/>
<feColorMatrix in="SourceAlpha" type="matrix" values="0 0 0 0 0 0 0 0 0 0 0 0 0 0 0 0 0 0 127 0" result="hardAlpha"/>
<feOffset dy="-1"/>
<feGaussianBlur stdDeviation="7.5"/>
<feColorMatrix type="matrix" values="0 0 0 0 0.727101 0 0 0 0 0.752789 0 0 0 0 0.804167 0 0 0 0.3 0"/>
<feBlend mode="normal" in2="BackgroundImageFix" result="effect1_dropShadow_652:4"/>
<feBlend mode="normal" in="SourceGraphic" in2="effect1_dropShadow_652:4" result="shape"/>
</filter>
</defs>
</svg>
