<!--?xml version="1.0" encoding="utf-8"?-->
<!-- Generator: Adobe Illustrator 15.1.0, SVG Export Plug-In . SVG Version: 6.00 Build 0)  -->

<svg version="1.1" id="_x32_" xmlns="http://www.w3.org/2000/svg" xmlns:xlink="http://www.w3.org/1999/xlink" x="0px" y="0px" width="512px" height="512px" viewBox="0 0 512 512" style="width: 32px; height: 32px; opacity: 1;" xml:space="preserve">
<style type="text/css">

	.st0{fill:#4B4B4B;}

</style>
<g>
	<path class="st0" d="M472.547,340.554c-7.141-24.781-14.266-49.578-21.391-74.359c-2.328-8.063-4.656-16.125-6.969-24.203
		l-19.344,19.344c6.266,24.672,12.531,49.344,18.797,74.031c3.094,12.156-5.016,22.969-18.344,18.813
		c-21.828-9.063-45.891-15.438-69.531-16.672c-26.875-1.375-54.406,4.125-79.172,14.453c-2.797,1.156-21.484,14.609-22.234,5.063
		c-0.406-22.313-0.828-44.625-1.234-66.938c-0.859-46.094-1.703-92.172-2.563-138.266c-0.047-2.641,6.328-3.969,7.641-4.469
		c10.438-3.953,21.359-6.672,32.359-8.453c26.797-4.359,53.172-2.125,79.375,4.516c8.344,2.125,17.094,4.719,23.25,10.094
		l12.438-12.422c-4.047-3.063-8.563-5.656-13.391-7.797c-22.234-9.953-50.453-13.891-74.578-14.453
		c-25.766-0.609-52.094,3.422-76.469,11.797c-4.75,1.625-12.516-2.688-17.375-4c-5.719-1.547-11.5-2.844-17.328-3.938
		c-12.844-2.375-25.875-3.672-38.938-3.875c-24.953-0.391-50.453,4.391-74.297,11.563c-5.25,1.969-1.5,0.578-0.328,0.141
		c-14.875,5.625-31.188,14.813-35.875,31.125c-1.172,4.078-2.359,8.156-3.531,12.234c-5.938,20.641-11.875,41.266-17.813,61.906
		c-8.125,28.219-16.234,56.422-24.359,84.625c-4.719,16.422-14.078,37.516-10.578,54.781c4.281,21.375,25.188,31.219,45.391,27.109
		c7.109-1.469,13.625-4.75,20.406-7.172c11.328-4.063,22.922-7.484,34.719-9.938c28.406-5.891,57.25-2.766,85.172,4.438
		c6.234,1.609,29.594,5.641,30.266,12.609c0.641,6.5,8.109,4.734,12.813,4.734c4.672,0,9.344,0,14.016,0
		c4.281,0,11.453,1.484,15.516-0.297c4.078-1.766,0.938-6.234,4.781-7.906c5.234-2.266,10.656-4.141,16.094-5.828
		c12.719-3.969,25.781-6.922,38.969-8.844c28.203-4.109,54.859-1.141,81.938,7.406c15.859,5,31.234,14.219,48.438,11.141
		c23.453-4.156,33.047-28.125,26.891-49.5C475.063,348.913,473.75,344.741,472.547,340.554z M226.5,206.616
		c-0.938,49.547-1.844,99.078-2.766,148.625c-0.063,3.313-0.969,5.375-4.656,5.281c-20.063-11.922-43.875-18.813-66.906-21.719
		c-27.063-3.422-53.547,0.266-79.484,8.313c-8.047,2.484-17.047,7.953-25.578,7.953c-9.766,0-15.438-8.688-13.156-17.766
		c5.969-23.453,11.906-46.922,17.875-70.375c7-27.578,13.984-55.172,21-82.75c1.75-6.859,3.484-13.734,5.234-20.609
		c4.266-16.813,28.047-20,42.25-22.953c26.516-5.484,53.391-5.453,79.813,0.766c4.563,1.078,27.5,4.609,27.375,11.156
		C227.156,170.569,226.828,188.601,226.5,206.616z" style="fill: rgb(75, 75, 75);"></path>
	<path class="st0" d="M304.609,311.819l69.547-14.75L512,159.257l-54.813-54.813L319.375,242.257L304.609,311.819z M485.563,159.257
		L367.375,277.429l-12.203-12.203l118.188-118.172L485.563,159.257z M457.188,130.882l12.203,12.203L351.203,261.257L339,249.054
		L457.188,130.882z M336.234,254.21l25.984,26l-24.203,5.328l-7.125-7.109L336.234,254.21z" style="fill: rgb(75, 75, 75);"></path>
</g>
</svg>
