<svg width="20" height="20" xmlns="http://www.w3.org/2000/svg">
 <g id="Layer_1">
  <title>Layer 1</title>
  <path transform="rotate(90 9.90566 10)" stroke="#000" id="svg_1" d="m0.81163,18.10468l9.09403,-16.20936l9.09403,16.20936l-18.18806,0z" fill="#fff"/>
  <ellipse stroke="#000" stroke-width="0.5" ry="4.1981" rx="4.1981" id="svg_10" cy="9.81132" cx="6.74529" fill="#fff"/>
  <text transform="matrix(0.511615 0 0 0.448087 0.739965 10.0235)" stroke="#000" xml:space="preserve" text-anchor="start" font-family="Noto Sans JP" font-size="24" stroke-width="0" id="svg_6" y="8.94784" x="3.9837" fill="#000000">E</text>
  <path stroke="#000" id="svg_7" d="m-27.31045,14.3323l0,0c0,-2.44344 2.10751,-4.42423 4.70725,-4.42423l0,0c1.24844,0 2.44575,0.46612 3.32853,1.29583c0.88278,0.8297 1.37872,1.95503 1.37872,3.12841l0,0c0,2.44344 -2.10751,4.42423 -4.70725,4.42423l0,0c-2.59974,0 -4.70725,-1.9808 -4.70725,-4.42423zm2.35363,0l0,0c0,1.22172 1.05376,2.21212 2.35363,2.21212c1.29987,0 2.35363,-0.9904 2.35363,-2.21212c0,-1.22172 -1.05375,-2.21212 -2.35363,-2.21212l0,0c-1.29987,0 -2.35363,0.9904 -2.35363,2.21212z" stroke-width="0" fill="#000000"/>
  <path id="svg_9" d="m-29.46941,-9.62234l0,0c0,-0.41145 0.33355,-0.745 0.745,-0.745l0,0c0.19759,0 0.38708,0.07849 0.52679,0.21821c0.13971,0.13971 0.21821,0.32921 0.21821,0.52679l0,0c0,0.41145 -0.33355,0.745 -0.745,0.745l0,0c-0.41145,0 -0.745,-0.33355 -0.745,-0.745zm0.3725,0l0,0c0,0.20573 0.16677,0.3725 0.3725,0.3725c0.20573,0 0.3725,-0.16677 0.3725,-0.3725c0,-0.20573 -0.16677,-0.3725 -0.3725,-0.3725l0,0c-0.20573,0 -0.3725,0.16677 -0.3725,0.3725z" stroke="#000" fill="#fff"/>
  <line stroke-width="0.5" id="svg_12" y2="13.25471" x2="9.90566" y1="6.46228" x1="3.96228" stroke="#000" fill="none"/>
 </g>
</svg>